<svg xmlns="http://www.w3.org/2000/svg" xmlns:xlink="http://www.w3.org/1999/xlink" width="17" height="18" viewBox="0 0 17 18"><defs><path id="a" d="M1204.58 65.53H1217l-1.72 9.18h-10.11l-1.94-7.09-.02.02-.94-3.52H1200V62h3.59zm9.46 7.06l.96-5.3h-10l1.37 5.3zm-1.04 3.17c1.1 0 2 .95 2 2.12 0 1.17-.9 2.12-2 2.12s-2-.95-2-2.12c0-1.17.9-2.12 2-2.12zm-6 0c1.1 0 2 .95 2 2.12 0 1.17-.9 2.12-2 2.12s-2-.95-2-2.12c0-1.17.9-2.12 2-2.12z"/></defs><g transform="translate(-1200 -62)"><use fill="#202020" xlink:href="#a"/></g></svg>